<?xml version="1.0" standalone="no"?>
<!DOCTYPE svg PUBLIC "-//W3C//DTD SVG 20010904//EN"
 "http://www.w3.org/TR/2001/REC-SVG-20010904/DTD/svg10.dtd">
<svg version="1.0" xmlns="http://www.w3.org/2000/svg"
 width="650.000000pt" height="651.000000pt" viewBox="0 0 650.000000 651.000000"
 preserveAspectRatio="xMidYMid meet">

<g transform="translate(0.000000,651.000000) scale(0.100000,-0.100000)"
fill="#000000" stroke="none">
<path d="M2124 5440 c-94 -31 -152 -75 -188 -145 -28 -52 -31 -68 -31 -145 0
-76 3 -92 33 -151 37 -77 38 -86 13 -113 -11 -12 -21 -30 -23 -40 -3 -19 -109
-61 -295 -115 -40 -12 -75 -26 -78 -31 -3 -6 -18 -10 -32 -10 -15 0 -47 -13
-72 -29 -25 -16 -81 -43 -124 -60 -43 -17 -104 -45 -137 -61 -33 -17 -66 -30
-73 -30 -7 0 -40 11 -73 24 -32 13 -76 26 -97 30 -37 7 -39 5 -105 -65 -37
-40 -80 -84 -97 -98 -125 -109 -507 -530 -588 -650 -59 -85 -49 -142 42 -236
55 -58 171 -117 431 -219 298 -117 317 -124 430 -151 161 -39 170 -43 170 -72
0 -33 37 -99 67 -118 18 -12 23 -25 23 -55 0 -29 5 -42 20 -50 11 -6 24 -29
30 -53 17 -64 67 -229 108 -352 20 -60 35 -117 34 -125 -4 -14 -10 -59 -27
-176 -6 -39 -4 -57 8 -75 21 -33 8 -143 -37 -308 -19 -69 -42 -175 -51 -236
-9 -60 -32 -190 -51 -289 -19 -98 -33 -180 -31 -183 8 -7 2607 -8 2607 0 0 4
-24 103 -54 220 -30 117 -69 277 -86 357 -18 80 -39 174 -46 209 -33 145 -105
341 -152 411 -26 38 -48 67 -50 65 -3 -2 15 -39 38 -82 23 -43 57 -123 75
-178 18 -55 36 -109 41 -120 10 -27 -70 68 -168 198 -44 59 -82 107 -84 107
-3 0 3 -15 12 -32 36 -70 89 -145 143 -203 69 -73 93 -103 72 -90 -17 10 -196
64 -231 70 -118 19 -210 44 -470 127 -170 55 -209 74 -295 144 -90 74 -138
196 -102 261 19 34 261 307 397 448 69 72 157 166 195 209 39 44 94 104 123
134 l53 55 27 -26 c43 -40 189 -116 292 -152 132 -45 165 -59 169 -68 7 -19
-187 -206 -271 -260 -84 -56 -201 -173 -244 -246 -15 -25 -32 -36 -84 -51 -65
-20 -154 -78 -251 -164 l-44 -39 50 28 c28 15 83 52 123 81 44 32 95 59 130
69 31 9 67 23 80 31 15 10 28 12 35 6 19 -15 111 -8 137 11 15 10 43 17 71 17
l47 0 4 -107 c3 -70 10 -120 21 -143 l16 -35 -7 60 c-4 33 -7 97 -7 142 0 96
12 117 61 107 29 -6 31 -9 41 -72 6 -37 18 -83 27 -102 12 -26 15 -29 12 -10
-3 14 -8 58 -12 97 -9 94 5 131 49 135 29 3 34 8 52 62 31 91 45 95 275 80
102 -7 186 -13 187 -13 1 -1 -6 -16 -17 -33 -10 -18 -28 -57 -40 -87 -12 -30
-28 -60 -37 -66 -9 -7 -17 -25 -18 -41 -1 -16 -16 -67 -33 -114 -17 -47 -36
-104 -42 -127 -10 -40 -12 -42 -35 -31 -29 13 -60 4 -48 -14 4 -7 8 -20 10
-28 1 -7 11 -21 23 -30 16 -12 20 -22 15 -42 l-7 -25 -61 19 c-69 21 -82 19
-99 -17 -9 -19 -16 -23 -35 -19 -19 5 -32 -1 -59 -27 -19 -18 -34 -38 -34 -45
0 -23 81 -164 103 -179 12 -8 42 -15 68 -15 26 0 60 -3 76 -6 l30 -6 11 -131
c9 -113 8 -134 -4 -143 -12 -10 -13 -26 -6 -95 5 -47 5 -77 0 -68 -46 75 -143
239 -154 259 -8 14 -30 68 -50 120 -33 87 -144 304 -151 296 -2 -2 17 -48 43
-102 25 -55 66 -151 90 -214 24 -63 53 -127 64 -142 26 -36 107 -174 165 -283
150 -282 195 -355 195 -316 0 5 -26 56 -59 113 -96 170 -135 252 -116 244 9
-3 20 -6 24 -6 5 0 47 -79 95 -175 50 -100 93 -175 101 -175 9 0 -18 63 -75
176 l-90 176 23 18 c22 18 22 18 48 -33 31 -64 102 -190 156 -277 37 -61 51
-71 87 -61 2 0 -18 42 -45 91 -48 90 -49 90 -29 110 45 45 9 126 -52 118 -30
-5 -30 -4 -25 31 36 242 51 322 67 356 14 30 19 35 19 18 2 -50 80 -73 114
-35 22 25 21 75 -1 95 -22 20 -72 22 -92 5 -12 -11 -12 -10 -1 4 16 22 270
172 278 165 3 -4 0 -50 -7 -104 -7 -54 -13 -182 -14 -285 -2 -135 -6 -191 -15
-202 -7 -8 -9 -21 -5 -28 9 -14 10 -22 12 -200 2 -114 5 -138 17 -138 11 0 15
21 17 108 2 62 7 105 12 102 6 -3 9 -51 7 -107 -2 -68 1 -103 8 -103 6 0 11
10 12 23 1 21 1 21 9 -3 5 -17 9 5 11 70 2 52 4 111 6 130 2 19 3 42 2 50 0 8
-3 65 -6 125 -2 61 -8 114 -13 119 -5 5 -4 16 2 26 9 15 15 12 47 -22 24 -25
56 -45 95 -59 57 -20 62 -20 140 -4 45 9 108 28 141 41 33 14 96 32 139 40 43
8 82 17 86 19 5 3 11 32 15 65 7 57 11 64 60 111 29 28 75 83 102 122 27 40
76 110 109 157 33 47 75 110 93 140 19 30 48 71 65 90 17 19 39 46 49 60 l17
25 -13 -30 c-8 -16 -31 -91 -52 -165 -20 -74 -44 -155 -53 -180 -16 -46 -82
-176 -113 -220 -35 -52 -81 -145 -110 -224 -26 -69 -29 -90 -24 -141 7 -72 31
-149 51 -166 21 -17 30 -3 12 18 -8 10 -18 25 -22 33 -4 8 4 2 17 -13 21 -25
25 -43 31 -130 4 -55 9 -105 12 -109 15 -24 19 13 11 119 -4 65 -6 158 -3 206
6 97 1 82 132 337 85 164 119 245 165 394 70 229 70 229 174 261 42 12 44 12
71 -17 26 -26 28 -35 27 -96 -1 -37 -5 -93 -9 -124 -6 -55 -7 -58 -29 -52 -27
7 -51 -7 -89 -53 l-27 -32 19 -44 c18 -41 19 -49 5 -109 -13 -60 -13 -67 6
-119 29 -75 102 -184 124 -184 13 0 24 -15 36 -50 10 -28 28 -76 40 -107 25
-68 26 -96 6 -208 -17 -97 -19 -134 -6 -126 8 6 21 67 41 194 10 68 7 79 -59
260 -31 82 -31 83 -15 148 8 36 12 69 9 74 -4 6 -5 76 -5 158 5 391 2 413 -61
493 -35 45 -36 49 -4 49 36 0 23 21 -30 49 -25 13 -45 28 -45 32 0 25 -42 49
-85 49 -39 0 -49 5 -82 41 -34 36 -42 40 -72 35 -40 -6 -65 6 -100 46 -21 26
-29 30 -64 25 -21 -3 -57 1 -80 8 -23 7 -61 18 -85 26 -26 7 -51 24 -63 41
-11 15 -40 51 -65 80 -24 28 -44 57 -44 63 0 5 -27 39 -61 74 l-61 64 7 137
c8 159 15 201 35 210 87 40 95 47 132 110 21 36 40 81 43 100 12 71 18 77 87
85 166 19 236 105 191 236 -23 68 -104 205 -162 273 -123 145 -161 187 -225
249 -160 156 -329 256 -449 267 -166 15 -301 -25 -390 -115 -109 -111 -138
-249 -90 -428 12 -44 13 -61 4 -70 -6 -6 -11 -19 -11 -29 0 -9 -17 -30 -37
-45 -21 -15 -96 -86 -168 -156 -86 -85 -156 -144 -205 -174 -41 -25 -82 -52
-91 -60 -14 -12 -17 -12 -23 2 -3 8 -16 19 -28 24 -20 7 -22 14 -19 67 4 99
30 205 73 294 90 187 76 170 139 170 98 0 180 71 195 168 17 113 -66 267 -257
479 -181 199 -310 280 -502 313 -134 24 -280 -27 -358 -125 -24 -30 -49 -70
-56 -88 -25 -69 -11 -259 24 -322 15 -26 4 -54 -28 -70 -15 -8 -38 -33 -50
-55 -15 -27 -28 -39 -38 -35 -8 3 -34 -12 -62 -35 -26 -22 -57 -40 -68 -40
-10 0 -32 -11 -48 -24 -30 -25 -126 -86 -136 -86 -16 0 37 115 125 273 30 53
38 60 88 77 93 31 131 103 110 203 -21 99 -129 265 -257 394 -148 148 -304
219 -503 229 -77 3 -107 0 -156 -16z m141 -101 c19 -17 35 -37 35 -45 0 -8 4
-14 10 -14 5 0 7 -6 4 -14 -3 -8 -1 -16 3 -19 13 -8 7 -65 -7 -82 -13 -16
-115 -21 -137 -7 -31 20 -39 122 -11 145 8 7 22 24 31 40 22 34 28 34 72 -4z
m150 -289 c69 -9 132 -26 124 -35 -2 -2 -31 3 -64 11 -33 7 -78 13 -100 13
-38 -1 -38 -2 -10 -8 17 -4 -18 -7 -82 -7 -62 1 -104 4 -95 9 9 4 0 5 -21 1
-46 -6 -88 -24 -82 -34 2 -4 -10 -17 -28 -30 -26 -19 -29 -20 -14 -3 9 11 14
22 11 26 -10 9 76 49 125 57 65 11 154 11 236 0z m1065 -27 c8 -18 21 -33 28
-33 6 0 12 -9 12 -20 0 -11 4 -20 9 -20 13 0 2 -113 -12 -122 -15 -10 -138
-10 -153 0 -15 9 -13 150 2 160 5 4 20 22 33 40 29 42 60 40 81 -5z m-1323 -9
c-3 -3 -12 -4 -19 -1 -8 3 -5 6 6 6 11 1 17 -2 13 -5z m123 -65 c-62 -10 -92
-11 -86 0 3 5 34 9 68 9 63 -1 63 -1 18 -9z m103 4 c-7 -2 -21 -2 -30 0 -10 3
-4 5 12 5 17 0 24 -2 18 -5z m57 -3 c12 -8 9 -10 -12 -10 -16 0 -28 5 -28 10
0 13 20 13 40 0z m55 -20 c-3 -5 -10 -10 -16 -10 -5 0 -9 5 -9 10 0 6 7 10 16
10 8 0 12 -4 9 -10z m-42 -36 c48 -8 104 -20 125 -27 36 -12 37 -13 43 -72 3
-33 12 -75 19 -93 17 -46 6 -131 -25 -192 -68 -133 -165 -258 -240 -308 -36
-24 -60 -31 -117 -36 -110 -8 -147 1 -180 49 -51 72 -61 99 -71 185 -14 116
-13 187 2 243 15 52 26 59 35 22 7 -29 27 -32 51 -9 12 13 19 14 30 4 21 -17
19 4 -2 25 -26 27 -62 36 -85 24 -19 -10 -20 -9 -15 12 4 13 7 30 7 37 0 8 16
4 50 -13 l50 -25 0 25 c0 18 -11 32 -40 51 -44 29 -47 41 -25 84 15 29 17 29
108 32 120 4 173 0 280 -18z m320 -45 c-8 -8 -13 -7 -18 2 -5 8 -4 10 3 5 7
-4 12 -2 12 5 0 7 3 9 7 6 4 -4 2 -12 -4 -18z m57 -30 c0 -12 -29 -24 -37 -16
-3 4 -3 13 0 21 6 16 37 11 37 -5z m-900 -29 c0 -15 -36 -34 -136 -74 -104
-41 -210 -101 -195 -111 6 -3 43 12 83 33 40 22 110 54 156 72 46 18 91 43
101 56 11 13 25 24 31 24 33 0 -35 -46 -149 -102 -136 -65 -137 -66 -129 -73
3 -3 64 24 136 60 73 35 132 61 132 57 0 -7 -92 -63 -216 -132 -112 -62 -184
-114 -179 -129 3 -7 -4 -29 -14 -47 -11 -19 -16 -34 -10 -34 5 0 21 24 35 53
23 48 25 49 20 17 -5 -34 -5 -34 8 5 11 34 22 45 72 71 32 17 76 34 97 38 34
6 38 5 35 -11 -1 -10 -32 -37 -68 -60 -36 -23 -92 -62 -126 -87 -33 -25 -82
-55 -109 -67 -43 -19 -208 -59 -246 -59 -9 0 -42 17 -73 37 l-56 37 68 37 c73
41 102 56 205 103 38 17 71 34 73 37 5 9 -172 -66 -206 -87 -14 -8 -53 -29
-88 -45 l-63 -30 -27 33 c-14 18 -43 50 -63 71 -39 39 -36 44 18 25 20 -7 32
-17 29 -25 -5 -13 90 19 151 51 17 8 60 27 97 40 37 14 95 41 130 61 34 19 65
32 68 29 4 -3 20 2 37 11 29 15 347 124 364 125 4 0 7 -4 7 -10z m73 -47 c-2
-21 -12 -63 -20 -93 -12 -43 -14 -82 -9 -175 8 -144 16 -171 72 -256 37 -56
50 -68 79 -73 34 -7 35 -8 35 -56 l0 -50 -63 24 c-35 13 -82 27 -105 31 -48 8
-60 1 -104 -59 -27 -38 -30 -39 -94 -42 -58 -3 -68 -1 -84 19 -16 19 -22 21
-56 12 -22 -6 -59 -8 -84 -4 -52 7 -90 -4 -90 -26 0 -8 -24 -32 -52 -54 -29
-21 -66 -53 -83 -69 -16 -17 -51 -40 -78 -51 -42 -18 -63 -20 -185 -16 -75 2
-156 4 -180 4 l-43 1 32 48 c36 53 123 139 185 182 23 16 48 44 57 63 15 32
77 90 160 150 27 19 59 32 99 37 70 10 172 56 231 103 23 19 74 55 114 80 40
26 80 58 90 73 17 26 17 27 -3 43 -20 15 -18 17 70 72 73 44 91 61 92 80 2 35
3 39 13 39 6 0 7 -17 4 -37z m2797 -53 c-19 -4 -47 -11 -62 -15 -16 -4 -28 -5
-28 -1 0 9 61 24 95 24 29 0 29 -1 -5 -8z m281 -37 c46 -22 93 -48 104 -57 11
-9 -7 -4 -40 12 -67 32 -168 67 -236 82 -42 9 -41 9 22 7 53 -2 81 -10 150
-44z m-1462 7 c75 -21 137 -49 112 -50 -8 0 -49 10 -90 22 -61 18 -102 22
-211 23 -133 0 -136 0 -192 -32 -32 -17 -58 -28 -58 -23 0 21 41 54 90 71 71
26 238 20 349 -11z m1376 -11 c121 -37 206 -84 330 -184 191 -153 329 -317
412 -490 40 -84 43 -137 11 -185 -26 -38 -98 -69 -162 -70 -33 0 -37 3 -31 18
4 9 17 47 28 84 20 66 20 69 3 125 -25 78 -44 102 -138 178 -89 72 -189 130
-349 201 l-106 47 -5 62 c-4 44 -15 80 -38 123 -40 75 -67 101 -114 109 -33 5
-40 2 -75 -35 -60 -63 -95 -183 -72 -245 8 -20 5 -26 -20 -41 -41 -24 -88 -92
-95 -136 -4 -27 -14 -42 -35 -54 -16 -9 -33 -15 -38 -11 -16 9 -31 102 -31
186 0 68 4 88 29 138 40 79 70 112 133 146 123 68 225 77 363 34z m-315 6
c-14 -8 -29 -14 -35 -14 -5 0 1 6 15 14 14 8 30 14 35 14 6 0 -1 -6 -15 -14z
m-1856 -24 c11 -13 15 -27 11 -40 -9 -28 -123 -164 -145 -173 -24 -9 -40 4
-34 29 6 21 35 36 66 34 18 -2 55 45 44 56 -3 4 -16 -3 -29 -15 -38 -36 -39
-25 -1 13 19 19 41 35 49 35 21 0 19 18 -2 23 -10 2 -5 3 10 1 31 -4 33 12 4
30 -24 15 -69 -12 -82 -49 -9 -28 -36 -58 -44 -50 -7 8 50 94 71 110 30 20 61
19 82 -4z m2071 -28 c26 -39 11 -38 -19 2 -16 20 -21 32 -12 29 8 -3 22 -17
31 -31z m-45 8 c0 -4 13 -21 29 -37 55 -56 61 -170 11 -203 l-25 -16 23 29
c13 17 22 42 21 60 -1 29 -1 30 -8 6 -7 -24 -8 -23 -13 10 -19 112 -37 140
-86 133 l-27 -4 23 20 c21 18 52 19 52 2z m-1403 -27 c-3 -3 -12 -4 -19 -1 -8
3 -5 6 6 6 11 1 17 -2 13 -5z m83 -10 c0 -2 -17 -4 -37 -3 -29 0 -33 2 -18 8
18 7 55 4 55 -5z m50 -4 c13 -8 13 -10 -2 -10 -9 0 -20 5 -23 10 -8 13 5 13
25 0z m89 -15 c11 -11 7 -12 -20 -6 -18 3 -34 12 -37 20 -5 16 35 6 57 -14z
m236 -17 c22 -24 28 -32 13 -19 -16 14 -30 22 -34 19 -3 -3 17 -25 45 -48 27
-23 52 -49 56 -58 3 -10 -26 14 -64 53 -64 63 -85 95 -63 95 4 0 26 -19 47
-42z m1365 -4 c0 -3 -13 4 -30 16 -16 12 -30 24 -30 26 0 3 14 -4 30 -16 17
-12 30 -24 30 -26z m-1935 1 c33 -3 103 -14 155 -25 52 -10 134 -24 181 -30
l87 -12 31 -61 c28 -57 31 -70 32 -174 l1 -112 -42 -78 c-84 -157 -175 -252
-266 -279 -78 -23 -185 -15 -250 17 -45 22 -51 29 -77 99 -27 69 -29 87 -30
215 -2 132 -1 143 23 185 20 38 25 41 28 23 5 -30 28 -36 51 -12 18 20 20 20
29 2 6 -10 14 -14 18 -10 14 14 -43 60 -75 61 -27 1 -32 5 -37 34 -4 18 -4 36
0 39 3 3 28 -6 56 -21 l50 -27 0 28 c0 22 -9 34 -44 56 -43 27 -44 28 -33 62
8 28 14 34 31 30 12 -2 48 -7 81 -10z m1428 -68 c-3 -5 -10 -3 -15 4 -6 10 -8
2 -6 -23 2 -21 0 -38 -6 -38 -21 0 28 -39 62 -49 l37 -11 -39 5 c-59 7 -76 27
-70 88 6 62 12 73 29 50 7 -10 11 -22 8 -26z m-3732 -20 c44 -56 47 -64 14
-43 -45 28 -75 58 -69 67 10 17 29 9 55 -24z m3925 -73 c-3 -8 -11 -14 -19
-14 -11 0 -11 11 2 63 l16 62 3 -49 c2 -27 1 -55 -2 -62z m-1858 70 c3 -23
-87 -132 -202 -243 -42 -40 -76 -75 -76 -77 0 -26 124 79 208 176 37 43 62 65
62 54 0 -15 -102 -119 -309 -316 -70 -67 -87 -92 -53 -82 9 3 4 -5 -13 -20
-21 -18 -25 -26 -14 -26 21 0 89 74 89 97 0 20 55 68 95 83 32 12 82 2 90 -18
6 -17 -24 -46 -60 -58 -22 -7 -114 -69 -186 -125 -37 -28 -61 -38 -120 -48
-41 -6 -102 -17 -136 -23 l-63 -12 -95 48 c-52 26 -95 51 -95 56 0 4 15 13 34
20 19 6 49 22 67 36 62 45 183 121 268 168 92 51 174 113 166 125 -2 5 19 25
48 45 28 19 62 43 75 52 21 15 22 15 22 -3 0 -24 -120 -142 -187 -182 -50 -31
-81 -67 -45 -54 83 31 248 179 259 233 5 27 87 99 99 87 23 -23 -68 -132 -214
-257 -40 -34 -71 -65 -68 -68 9 -8 157 110 222 178 68 71 83 95 84 131 0 45
42 65 48 23z m58 -12 c20 -13 16 -109 -6 -161 -19 -42 -21 -64 -18 -192 3
-123 7 -152 27 -199 l23 -55 -26 28 c-22 24 -28 26 -53 16 -25 -9 -30 -7 -53
20 -24 29 -28 31 -92 28 -37 -2 -70 -6 -74 -10 -13 -13 -42 -7 -48 9 -7 19 9
34 69 66 70 36 95 58 95 82 0 29 -17 44 -59 52 l-32 7 107 108 c93 95 106 112
100 134 -13 51 9 88 40 67z m894 -28 c0 -8 -7 -14 -15 -14 -15 0 -21 21 -9 33
10 9 24 -2 24 -19z m840 12 c0 -17 -37 -36 -68 -35 l-37 1 30 7 c17 4 40 13
50 19 23 13 25 14 25 8z m-2280 -10 c0 -2 -8 -10 -17 -17 -16 -13 -17 -12 -4
4 13 16 21 21 21 13z m59 -29 c15 -19 25 -72 17 -101 -5 -19 -23 -31 -83 -56
-87 -36 -101 -42 -193 -92 -36 -19 -94 -40 -129 -47 -34 -7 -69 -15 -77 -18
-10 -4 -14 4 -14 30 0 32 3 35 38 41 20 3 53 6 73 6 45 0 150 72 258 176 79
76 91 83 110 61z m571 -57 c0 -5 -4 -10 -10 -10 -5 0 -10 5 -10 10 0 6 5 10
10 10 6 0 10 -4 10 -10z m756 -58 c25 -16 25 -61 -1 -109 -14 -27 -32 -65 -39
-85 -8 -20 -23 -41 -34 -47 -17 -9 -23 -6 -39 20 l-20 30 -31 -58 c-18 -32
-46 -74 -63 -93 l-32 -35 21 35 c11 19 34 62 52 94 17 33 43 76 57 95 l25 36
-6 -42 c-3 -24 -3 -43 2 -43 11 0 52 56 52 71 0 7 10 23 22 36 14 15 17 23 8
23 -10 0 -9 5 3 18 21 23 11 35 -15 21 -19 -10 -19 -10 -3 15 18 28 24 30 41
18z m-1246 -7 c0 -8 -111 -79 -200 -129 -47 -26 -100 -57 -118 -69 -104 -70
-168 -107 -182 -107 -9 0 -25 -6 -35 -14 -16 -11 -23 -11 -52 6 -18 11 -33 23
-33 27 0 4 17 21 38 38 35 28 106 53 153 53 12 0 60 22 108 49 47 26 118 60
156 75 39 14 88 37 110 51 39 24 55 30 55 20z m2195 -72 l40 -7 -31 -6 c-18
-4 -90 -5 -160 -1 -85 3 -117 7 -94 12 48 9 196 10 245 2z m-288 -19 c-3 -3
-12 -4 -19 -1 -8 3 -5 6 6 6 11 1 17 -2 13 -5z m398 -4 c14 -7 8 -8 -20 -3
-22 3 -42 7 -44 9 -9 8 45 2 64 -6z m-82 -7 c-7 -2 -19 -2 -25 0 -7 3 -2 5 12
5 14 0 19 -2 13 -5z m113 -24 c94 -28 97 -29 93 -34 -4 -3 -153 37 -184 49
-32 13 33 3 91 -15z m143 -73 c-9 -8 -10 -7 -5 7 3 10 7 24 7 30 1 7 3 4 6 -7
3 -10 -1 -23 -8 -30z m-662 28 c-3 -3 -12 -4 -19 -1 -8 3 -5 6 6 6 11 1 17 -2
13 -5z m567 -7 l29 -13 -24 -10 c-13 -6 -37 -7 -54 -3 l-30 7 34 1 c40 1 36
10 -11 21 l-33 8 30 1 c17 0 43 -5 59 -12z m-294 -7 c8 -5 11 -10 5 -10 -5 0
-17 5 -25 10 -8 5 -10 10 -5 10 6 0 17 -5 25 -10z m158 -2 c4 12 42 4 42 -9 0
-11 -44 -12 -91 -2 -27 5 -30 8 -14 13 11 4 29 3 40 -3 13 -7 20 -7 23 1z
m273 -19 c-9 -22 -10 -22 -10 -3 -1 11 2 24 6 27 12 12 14 0 4 -24z m54 -7
c-3 -3 -11 0 -18 7 -9 10 -8 11 6 5 10 -3 15 -9 12 -12z m-375 -48 c91 -20
199 -50 241 -66 l77 -30 6 -45 c8 -62 -33 -310 -60 -355 -4 -7 -36 -57 -71
-111 -52 -81 -74 -104 -124 -137 -119 -76 -144 -85 -249 -84 -134 1 -157 13
-209 107 -38 68 -43 86 -56 199 -19 156 -18 230 3 292 20 59 37 68 45 26 6
-26 11 -30 38 -30 23 0 32 5 36 20 5 20 7 20 24 4 33 -30 34 -5 2 28 -26 25
-40 31 -78 32 l-46 1 6 35 c4 19 9 37 12 40 2 3 35 -12 73 -32 37 -20 70 -35
72 -32 3 2 3 16 0 30 -5 28 -53 68 -99 84 -24 9 -29 15 -25 35 2 14 13 26 26
29 48 10 201 -7 356 -40z m-1074 -12 c-3 -10 -8 -84 -12 -167 -3 -82 -11 -161
-18 -175 -14 -30 -226 -124 -302 -133 -57 -6 -82 5 -166 75 -46 38 -48 42 -48
91 l0 52 88 1 c64 0 101 6 142 22 118 47 262 165 290 236 11 29 34 26 26 -2z
m1579 -12 c3 -5 1 -10 -4 -10 -6 0 -11 5 -11 10 0 6 2 10 4 10 3 0 8 -4 11
-10z m-1045 -15 c0 -8 -4 -15 -9 -15 -5 0 -11 7 -15 15 -3 9 0 15 9 15 8 0 15
-7 15 -15z m-40 -20 c0 -29 -33 -80 -94 -145 -112 -118 -148 -161 -141 -168 4
-4 56 45 116 108 118 123 132 123 26 0 -64 -76 -93 -118 -84 -126 13 -13 188
211 231 294 10 19 20 32 22 29 9 -9 -65 -150 -113 -217 -27 -36 -67 -83 -90
-105 -36 -35 -71 -96 -104 -181 l-10 -28 22 19 c22 20 22 20 15 -2 -4 -13 -5
-23 -2 -23 11 0 37 62 46 110 8 40 19 59 58 97 27 26 58 61 69 78 19 27 23 28
48 17 14 -7 25 -17 23 -22 -4 -14 -76 -106 -124 -159 -22 -25 -55 -67 -72 -92
-34 -51 -86 -99 -107 -99 -7 0 -18 -7 -26 -16 -14 -17 -126 -76 -169 -89 -14
-4 -43 -20 -66 -36 -38 -26 -43 -27 -63 -13 -12 8 -44 23 -72 33 l-52 17 32
26 c17 15 67 48 112 75 45 26 99 68 120 93 22 25 46 53 55 63 9 10 14 20 12
22 -2 2 -32 -24 -66 -59 -38 -38 -103 -86 -166 -124 -58 -35 -108 -67 -111
-72 -3 -6 -15 -10 -27 -10 -27 0 -99 41 -95 54 2 5 39 34 83 63 43 30 88 62
99 72 11 9 41 25 67 35 32 12 63 35 95 71 47 52 159 145 175 145 25 0 135 91
216 179 93 101 112 115 112 86z m143 -32 c-3 -21 -17 -80 -30 -132 -23 -89
-23 -102 -13 -210 6 -64 13 -126 15 -139 8 -35 -34 -48 -59 -19 -15 18 -29 22
-82 22 -90 1 -96 12 -37 78 78 88 123 149 123 165 0 20 -29 52 -48 52 -12 0
-12 4 2 23 24 32 86 163 86 181 0 10 9 16 24 16 23 0 24 -3 19 -37z m987 18
c0 -11 -5 -23 -11 -27 -15 -9 -33 12 -26 30 9 23 37 20 37 -3z m-910 -105 c0
-11 -19 -15 -25 -6 -3 5 1 10 9 10 9 0 16 -2 16 -4z m850 -96 c0 -6 -8 -13
-17 -17 -21 -7 -63 -43 -63 -53 0 -4 18 1 40 12 46 23 65 19 81 -15 9 -21 6
-35 -22 -91 -43 -86 -77 -118 -126 -120 -34 -1 -38 2 -41 25 -4 33 22 57 42
39 21 -16 60 -9 64 13 3 16 1 17 -17 8 -19 -11 -19 -10 -6 16 9 17 25 30 42
33 32 6 33 23 1 31 -22 5 -21 6 10 17 40 14 41 22 2 22 -36 0 -80 -41 -80 -74
0 -15 -9 -24 -34 -32 l-35 -11 36 71 c43 86 123 167 123 126z m-1526 -86 c4
-10 -10 -33 -39 -66 -57 -64 -81 -82 -127 -97 -20 -7 -42 -19 -49 -27 -29 -35
-46 -35 -68 0 -12 18 -21 36 -21 39 0 2 44 23 98 46 120 51 163 76 169 102 6
23 28 25 37 3z m-482 -130 c25 -8 23 -13 -18 -56 -29 -31 -54 -48 -54 -35 0 1
-13 42 -30 90 -16 49 -30 94 -30 101 0 6 26 -12 57 -41 31 -29 65 -55 75 -59z
m-635 50 c-3 -3 -12 -4 -19 -1 -8 3 -5 6 6 6 11 1 17 -2 13 -5z m2465 -89 c-3
-16 2 -33 12 -44 15 -16 13 -21 -30 -72 -28 -33 -62 -60 -87 -71 -57 -23 -64
-22 -35 5 27 25 95 123 122 175 20 39 25 40 18 7z m-2222 9 c0 -3 -8 -18 -19
-32 -52 -75 -60 -133 -40 -312 l12 -100 -39 -44 c-21 -24 -42 -45 -46 -45 -9
-1 -21 137 -21 244 0 110 17 196 49 253 23 38 28 42 64 42 22 0 40 -3 40 -6z
m539 -13 c6 -10 7 -22 3 -26 -4 -5 -2 -5 5 -1 7 4 17 -2 23 -15 9 -17 8 -23
-6 -34 -15 -10 -29 -8 -88 13 -39 14 -73 27 -76 30 -10 8 83 49 117 51 7 1 17
-7 22 -18z m-1189 -45 c0 -3 -4 -8 -10 -11 -5 -3 -10 -1 -10 4 0 6 5 11 10 11
6 0 10 -2 10 -4z m2005 -16 c3 -6 -1 -7 -9 -4 -18 7 -21 14 -7 14 6 0 13 -4
16 -10z m-872 -34 l37 -16 -36 -32 c-36 -32 -36 -32 -68 -14 -55 30 -90 62
-81 75 10 17 97 9 148 -13z m1749 -213 l-3 -182 -177 -57 c-146 -47 -189 -57
-247 -58 l-70 0 -37 54 c-37 52 -38 56 -38 141 l0 88 63 -5 c54 -5 75 -1 165
30 221 76 270 98 308 137 21 21 38 38 38 36 1 -1 0 -84 -2 -184z m-597 -12 c3
-5 1 -12 -4 -15 -5 -3 -11 1 -15 9 -6 16 9 21 19 6z m-35 -87 c0 -8 -5 -12
-10 -9 -6 4 -8 11 -5 16 9 14 15 11 15 -7z m40 12 c0 -2 -8 -10 -17 -17 -16
-13 -17 -12 -4 4 13 16 21 21 21 13z m-95 -16 c-3 -5 -12 -10 -18 -10 -7 0 -6
4 3 10 19 12 23 12 15 0z m-1755 -20 c-25 -8 -21 -12 14 -14 11 -1 21 -7 23
-13 6 -17 -39 -17 -55 -1 -21 21 -14 38 16 37 l27 -1 -25 -8z m1745 -19 c-3
-6 -11 -11 -17 -11 -6 0 -6 6 2 15 14 17 26 13 15 -4z m764 -46 l32 -45 -43
-38 c-23 -20 -72 -64 -108 -97 -95 -88 -200 -178 -204 -174 -4 5 -120 202
-124 210 -1 4 12 9 30 13 60 12 378 118 384 128 4 5 1 15 -5 21 -13 13 -14 27
-3 27 5 0 23 -20 41 -45z m-633 -56 c24 -35 44 -66 44 -69 0 -4 -17 -15 -39
-24 -41 -19 -64 -56 -76 -120 -7 -35 -25 -60 -25 -34 0 7 -20 33 -45 57 -25
24 -45 49 -45 55 0 7 20 33 44 58 24 25 54 68 67 95 13 28 25 49 27 48 2 -2
23 -31 48 -66z m-99 29 c-3 -8 -6 -5 -6 6 -1 11 2 17 5 13 3 -3 4 -12 1 -19z
m793 -60 c0 -5 25 -37 55 -71 30 -33 55 -68 55 -76 -1 -26 -46 -194 -59 -219
-8 -16 -18 -21 -34 -17 -141 35 -183 42 -191 35 -5 -5 6 -31 26 -62 67 -102
73 -115 59 -132 -14 -17 -249 -133 -356 -176 -85 -34 -260 -125 -375 -195
-137 -83 -133 -82 -98 -27 190 296 178 281 359 458 168 165 204 199 389 364
47 41 100 89 120 107 33 30 50 34 50 11z m-1207 5 c-7 -2 -19 -2 -25 0 -7 3
-2 5 12 5 14 0 19 -2 13 -5z m140 0 c-7 -2 -19 -2 -25 0 -7 3 -2 5 12 5 14 0
19 -2 13 -5z m-489 -54 c-3 -5 -10 -7 -15 -3 -5 3 -7 10 -3 15 3 5 10 7 15 3
5 -3 7 -10 3 -15z m553 -35 l21 -6 -23 -51 c-19 -39 -34 -56 -67 -74 -24 -12
-46 -22 -50 -23 -9 0 35 103 58 138 15 23 25 26 61 16z m98 -38 c0 -13 -15
-24 -47 -37 -27 -10 -48 -17 -48 -15 0 8 29 71 35 77 13 13 60 -7 60 -25z
m-2721 -32 c9 -3 13 -10 10 -15 -8 -14 -21 -11 -28 6 -6 17 -4 18 18 9z m2810
-149 c-3 -49 -12 -157 -20 -240 -7 -82 -14 -170 -14 -194 0 -32 -9 -59 -37
-104 l-36 -60 -23 44 c-34 65 -79 181 -149 386 l-63 183 52 29 c28 15 78 40
111 55 33 15 71 33 85 40 23 11 29 10 62 -18 l37 -31 -5 -90z m-851 132 c4 3
7 -1 7 -10 0 -24 -27 -21 -33 4 -4 15 -2 18 7 10 7 -6 16 -8 19 -4z m1237 -67
l24 -51 -119 -119 c-65 -66 -120 -118 -122 -116 -2 2 2 66 9 144 l12 140 68
27 c37 15 71 31 74 36 9 16 28 -5 54 -61z m612 -4 c13 -8 52 -26 88 -39 36
-14 106 -46 157 -71 l92 -46 -58 -88 c-32 -48 -107 -161 -167 -252 -103 -156
-204 -291 -239 -320 -15 -13 -17 -10 -14 22 2 21 0 40 -4 44 -4 4 -7 21 -7 39
l0 31 -192 47 c-320 78 -328 79 -328 33 0 -22 -3 -24 -40 -19 -27 4 -40 2 -40
-6 0 -7 -4 -9 -10 -6 -5 3 -10 17 -10 30 0 31 23 46 152 100 57 23 128 56 158
71 30 16 82 42 116 57 66 30 120 78 110 99 -3 7 -24 42 -46 77 -22 34 -40 64
-40 66 0 1 43 -6 95 -18 116 -24 111 -28 151 121 27 101 28 102 40 73 7 -16
23 -36 36 -45z m-3723 -21 c23 -61 28 -99 17 -132 -10 -32 -23 -28 -30 10 -4
17 -17 59 -31 91 -18 44 -21 63 -13 73 20 25 37 13 57 -42z m1876 45 c3 -5 1
-10 -4 -10 -6 0 -11 5 -11 10 0 6 2 10 4 10 3 0 8 -4 11 -10z m-1717 -219 c37
-51 71 -99 77 -107 7 -9 2 -21 -15 -39 -22 -24 -24 -24 -43 -7 -11 9 -48 52
-84 94 -57 69 -63 80 -53 99 11 19 8 60 -6 107 -8 26 50 -43 124 -147z m2219
-24 c-39 -171 -51 -273 -51 -447 -1 -96 2 -207 6 -245 l8 -70 -35 -11 c-33
-10 -34 -10 -41 19 -3 16 -6 133 -6 261 l-1 231 36 135 c20 74 46 159 58 189
21 49 24 52 33 32 7 -15 5 -43 -7 -94z m1715 21 c-9 -9 -12 -7 -12 12 0 19 3
21 12 12 9 -9 9 -15 0 -24z m-32 -28 l-8 -35 -1 31 c-1 17 2 34 6 37 11 12 12
3 3 -33z m94 24 c20 -8 21 -24 2 -24 -8 0 -16 7 -20 15 -6 17 -4 18 18 9z
m-1734 -25 c0 -20 94 -269 137 -361 l45 -98 -21 -28 c-42 -60 -88 -212 -111
-372 -12 -85 -23 -157 -25 -158 -2 -2 -11 11 -20 30 -10 18 -28 47 -41 64 -22
29 -23 43 -30 225 -8 237 -8 430 1 458 3 12 12 21 19 21 7 0 23 11 36 25 25
27 21 40 -15 47 -15 3 -19 10 -17 33 6 64 24 135 33 130 5 -4 9 -10 9 -16z
m1696 -26 c-11 -11 -19 6 -11 24 8 17 8 17 12 0 3 -10 2 -21 -1 -24z m191 21
c2 -5 -22 -16 -53 -25 -47 -14 -54 -15 -50 -2 3 8 6 18 6 23 0 5 17 11 38 13
46 4 55 3 59 -9z m-272 -26 c-9 -41 -25 -60 -25 -29 0 23 16 61 26 61 3 0 3
-15 -1 -32z m130 2 c-3 -5 -14 -10 -23 -10 -15 0 -15 2 -2 10 20 13 33 13 25
0z m-4207 -22 c17 -17 15 -43 -4 -59 -31 -26 -70 25 -44 56 15 18 32 19 48 3z
m4142 -24 c0 -8 -4 -12 -10 -9 -5 3 -10 13 -10 21 0 8 5 12 10 9 6 -3 10 -13
10 -21z m-109 -21 c-10 -17 -10 -16 -11 3 0 23 13 41 18 25 2 -6 -1 -18 -7
-28z m154 27 c-3 -5 -13 -10 -21 -10 -8 0 -14 5 -14 10 0 6 9 10 21 10 11 0
17 -4 14 -10z m-65 -42 c0 -19 -2 -20 -10 -8 -13 19 -13 30 0 30 6 0 10 -10
10 -22z m50 3 c0 -5 -7 -11 -15 -15 -15 -5 -20 5 -8 17 9 10 23 9 23 -2z m5
-70 c-29 -73 -43 -93 -30 -43 10 40 47 123 52 118 3 -3 -7 -37 -22 -75z
m-4422 36 c24 -32 25 -35 11 -86 -7 -29 -15 -73 -16 -97 -2 -24 -6 -44 -10
-44 -9 0 -58 59 -58 70 0 5 7 35 15 67 8 31 15 72 15 90 0 42 11 42 43 0z
m4247 8 c0 -8 -4 -15 -10 -15 -5 0 -7 7 -4 15 4 8 8 15 10 15 2 0 4 -7 4 -15z
m110 -28 c0 -10 -4 -15 -10 -12 -5 3 -10 18 -10 33 0 21 2 24 10 12 5 -8 10
-23 10 -33z m45 13 c-3 -5 -11 -10 -16 -10 -6 0 -7 5 -4 10 3 6 11 10 16 10 6
0 7 -4 4 -10z m-3807 -40 c2 -23 0 -31 -6 -22 -14 20 -46 10 -50 -14 -4 -28
28 -41 44 -19 10 14 12 13 18 -7 3 -13 9 -73 12 -134 l7 -111 -38 -5 c-21 -2
-38 0 -40 6 -7 24 -14 334 -8 340 4 4 19 6 33 4 21 -3 25 -9 28 -38z m3613
-13 c-13 -13 -15 1 -4 30 7 17 8 17 11 -1 2 -10 -1 -23 -7 -29z m129 13 c0 -5
-2 -10 -4 -10 -3 0 -8 5 -11 10 -3 6 -1 10 4 10 6 0 11 -4 11 -10z m50 5 c0
-2 -10 -10 -22 -16 -21 -11 -22 -11 -9 4 13 16 31 23 31 12z m-4325 -22 c-4
-10 -12 -55 -18 -100 -14 -104 -32 -111 -24 -9 7 81 21 126 38 126 7 0 8 -7 4
-17z m56 -14 c-2 -8 -10 -55 -19 -106 -12 -71 -18 -90 -29 -86 -12 5 -13 19
-8 67 9 96 25 148 44 143 9 -2 14 -10 12 -18z m109 11 c24 -8 24 -8 -7 -9 -17
-1 -35 4 -38 9 -7 11 9 11 45 0z m4097 -22 c-3 -8 -6 -5 -6 6 -1 11 2 17 5 13
3 -3 4 -12 1 -19z m-4167 -99 c-12 -100 -13 -104 -29 -94 -14 8 -14 59 0 127
15 77 18 83 30 71 8 -8 7 -39 -1 -104z m133 104 c-7 -2 -19 -2 -25 0 -7 3 -2
5 12 5 14 0 19 -2 13 -5z m3893 -20 c-10 -10 -19 5 -10 18 6 11 8 11 12 0 2
-7 1 -15 -2 -18z m-3984 -33 c-2 -22 -6 -40 -8 -40 -2 0 -4 18 -4 40 0 22 3
40 8 40 4 0 6 -18 4 -40z m264 25 c16 -12 16 -14 3 -15 -9 0 -30 7 -45 15
l-29 15 26 0 c14 0 34 -7 45 -15z m4237 -44 c6 -46 4 -52 -7 -40 -8 9 -11 29
-8 57 5 54 8 51 15 -17z m-4364 34 c11 -12 -8 -13 -47 -3 -32 8 -46 7 -57 -2
-12 -10 -15 -9 -15 5 0 16 7 17 57 11 31 -4 59 -9 62 -11z m3981 -7 c0 -18 -2
-20 -9 -8 -6 8 -7 18 -5 22 9 14 14 9 14 -14z m37 -5 c-15 -16 -17 -16 -17 -1
0 9 6 18 13 21 20 7 22 -2 4 -20z m-3989 -88 c-2 -68 -7 -105 -14 -105 -7 0
-10 19 -7 53 13 181 27 213 21 52z m3783 68 c-10 -17 -10 -16 -11 3 0 23 13
41 18 25 2 -6 -1 -18 -7 -28z m-3395 -32 c-3 -20 -9 -71 -13 -114 -5 -70 -8
-77 -25 -71 -10 3 -25 0 -33 -6 -19 -15 -19 -15 -4 115 15 129 12 123 49 117
31 -4 32 -6 26 -41z m1737 -20 c26 -10 27 -13 27 -86 l0 -75 -32 0 c-18 0 -57
3 -86 7 -51 6 -54 8 -77 52 -13 25 -34 60 -45 77 l-21 32 26 30 25 30 78 -28
c42 -15 89 -32 105 -39z m-2193 -12 c0 -69 -1 -71 -22 -65 -13 3 -27 6 -33 6
-6 0 -9 26 -7 65 4 64 4 65 33 65 l29 0 0 -71z m210 61 c0 -5 -6 -7 -12 -5
-20 7 -40 -10 -36 -31 2 -12 12 -19 26 -18 17 0 22 -5 22 -26 0 -23 -4 -27
-24 -23 -23 5 -42 -19 -30 -38 8 -13 42 -11 47 4 3 7 6 4 6 -6 1 -16 -6 -18
-56 -15 l-58 3 -3 83 -3 82 61 0 c33 0 60 -4 60 -10z m427 0 c17 0 15 -25 -12
-155 -8 -38 -17 -87 -20 -107 -6 -36 -8 -38 -42 -38 l-36 0 6 68 c3 38 16 93
31 129 14 35 26 74 26 89 0 20 4 25 16 20 9 -3 23 -6 31 -6z m3373 -21 c0 -11
-4 -17 -10 -14 -5 3 -10 15 -10 26 0 11 5 17 10 14 6 -3 10 -15 10 -26z m40 6
c0 -8 -7 -15 -16 -15 -14 0 -14 3 -4 15 7 8 14 15 16 15 2 0 4 -7 4 -15z m-6
-101 c-52 -141 -254 -550 -254 -514 1 8 14 40 30 70 30 55 137 273 190 385 15
33 36 86 46 119 10 32 20 54 22 48 2 -6 -14 -54 -34 -108z m-3681 54 c-11
-105 -21 -119 -22 -30 -1 65 2 82 14 82 11 0 13 -11 8 -52z m197 40 c0 -7 -12
-48 -27 -90 -24 -67 -31 -78 -51 -78 -20 0 -23 4 -18 28 3 15 8 55 11 90 l7
62 39 0 c24 0 39 -5 39 -12z m3257 -20 c-3 -8 -6 -5 -6 6 -1 11 2 17 5 13 3
-3 4 -12 1 -19z m-3931 -86 c-11 -10 -12 3 -7 53 l6 50 3 -49 c2 -26 1 -51 -2
-54z m4104 62 c0 -14 -4 -23 -9 -20 -5 3 -7 15 -4 26 7 28 13 25 13 -6z m-920
1 c0 -8 -4 -15 -10 -15 -5 0 -7 7 -4 15 4 8 8 15 10 15 2 0 4 -7 4 -15z m964
0 c-6 -16 -24 -21 -24 -7 0 11 11 22 21 22 5 0 6 -7 3 -15z m-926 -13 c2 -7
-3 -12 -12 -12 -9 0 -16 7 -16 16 0 17 22 14 28 -4z m685 -2 c-3 -11 -7 -20
-9 -20 -2 0 -4 9 -4 20 0 11 4 20 9 20 5 0 7 -9 4 -20z m-883 6 c0 -3 -4 -8
-10 -11 -5 -3 -10 -1 -10 4 0 6 5 11 10 11 6 0 10 -2 10 -4z m247 -18 c-3 -8
-6 -5 -6 6 -1 11 2 17 5 13 3 -3 4 -12 1 -19z m33 2 c0 -5 -5 -10 -11 -10 -5
0 -7 5 -4 10 3 6 8 10 11 10 2 0 4 -4 4 -10z m-263 -32 c-3 -7 -5 -2 -5 12 0
14 2 19 5 13 2 -7 2 -19 0 -25z m293 28 c0 -3 -4 -8 -10 -11 -5 -3 -10 -1 -10
4 0 6 5 11 10 11 6 0 10 -2 10 -4z m40 -12 c0 -17 -22 -14 -28 4 -2 7 3 12 12
12 9 0 16 -7 16 -16z m30 -4 c0 -5 -5 -10 -11 -10 -5 0 -7 5 -4 10 3 6 8 10
11 10 2 0 4 -4 4 -10z m466 -16 c-4 -9 -9 -15 -11 -12 -3 3 -3 13 1 22 4 9 9
15 11 12 3 -3 3 -13 -1 -22z m264 16 c0 -5 -9 -14 -20 -20 -22 -12 -27 -1 -8
18 14 14 28 16 28 2z m-2588 -14 c51 -11 102 -147 62 -163 -18 -7 -19 -5 -76
101 -43 78 -42 77 -25 72 6 -3 24 -7 39 -10z m1472 -2 c3 -8 2 -12 -4 -9 -6 3
-10 10 -10 16 0 14 7 11 14 -7z m226 -10 c162 -37 290 -68 345 -85 86 -27 25
-17 -160 25 -88 20 -189 43 -225 51 -36 8 -75 15 -87 15 -13 0 -23 4 -23 9 0
11 62 5 150 -15z m195 16 c3 -5 -1 -10 -9 -10 -9 0 -16 5 -16 10 0 6 4 10 9
10 6 0 13 -4 16 -10z m-1790 -28 c6 -4 21 -29 34 -57 12 -27 36 -69 51 -92
l28 -41 -22 -21 c-12 -12 -30 -21 -39 -21 -21 0 -68 71 -56 85 15 15 10 57
-11 104 -11 24 -20 45 -20 47 0 7 24 4 35 -4z m1885 -2 c0 -5 -5 -10 -11 -10
-5 0 -7 5 -4 10 3 6 8 10 11 10 2 0 4 -4 4 -10z m30 -5 c0 -8 -4 -15 -10 -15
-5 0 -10 7 -10 15 0 8 5 15 10 15 6 0 10 -7 10 -15z m-3430 -5 c0 -5 -7 -7
-15 -4 -8 4 -15 8 -15 10 0 2 7 4 15 4 8 0 15 -4 15 -10z m2890 -28 c0 -7 -4
-10 -10 -7 -5 3 -10 16 -10 28 0 18 2 19 10 7 5 -8 10 -21 10 -28z m30 28 c0
-5 -4 -10 -10 -10 -5 0 -10 5 -10 10 0 6 5 10 10 10 6 0 10 -4 10 -10z m133
-4 c34 -8 96 -22 137 -31 41 -9 135 -30 208 -48 127 -30 132 -32 132 -57 0
-32 -57 -89 -155 -156 -123 -84 -116 -83 -242 -12 -59 34 -136 77 -171 96 -35
19 -66 40 -69 48 -5 14 9 64 39 131 22 49 27 50 121 29z m407 -1 c0 -8 -4 -15
-10 -15 -5 0 -7 7 -4 15 4 8 8 15 10 15 2 0 4 -7 4 -15z m240 -15 c-6 -12 -14
-19 -17 -17 -2 3 1 15 7 27 6 12 14 19 17 17 2 -3 -1 -15 -7 -27z m267 0 c-11
-16 -17 -18 -22 -9 -5 7 -1 18 10 25 25 18 31 10 12 -16z m-3989 -6 c49 -10
79 -11 91 -5 10 6 39 9 64 8 37 -2 43 -4 34 -16 -10 -11 -37 -13 -138 -8 -122
6 -179 17 -179 35 0 10 14 8 128 -14z m2863 -55 l-11 -34 5 34 c3 18 6 45 6
60 l2 26 4 -26 c2 -15 -1 -42 -6 -60z m646 59 c-3 -8 -6 -5 -6 6 -1 11 2 17 5
13 3 -3 4 -12 1 -19z m30 -10 c-3 -8 -6 -5 -6 6 -1 11 2 17 5 13 3 -3 4 -12 1
-19z m144 -45 c-10 -17 -10 -16 -11 3 0 23 13 41 18 25 2 -6 -1 -18 -7 -28z
m-3181 -13 c0 -22 -4 -40 -8 -40 -17 0 -32 25 -32 52 0 21 5 28 20 28 17 0 20
-7 20 -40z m279 34 c18 -4 39 -16 46 -28 12 -18 12 -28 -3 -69 -16 -46 -18
-48 -47 -42 -16 3 -51 9 -76 12 -40 5 -47 9 -57 37 -7 18 -12 47 -12 64 l0 32
59 0 c32 0 73 -3 90 -6z m928 -101 c-2 -21 -4 -4 -4 37 0 41 2 58 4 38 2 -21
2 -55 0 -75z m1185 65 c-10 -22 -11 -21 -11 12 -1 26 2 31 11 22 8 -8 8 -17 0
-34z m1025 20 c-3 -8 -6 -5 -6 6 -1 11 2 17 5 13 3 -3 4 -12 1 -19z m43 2 c-6
-11 -15 -20 -20 -20 -16 0 -11 18 8 29 24 14 24 14 12 -9z m419 -61 c-14 -8
-34 12 -20 21 4 3 11 14 16 25 8 18 9 17 13 -9 2 -17 -2 -32 -9 -37z m-3949
21 c0 -27 -3 -30 -30 -30 -25 0 -30 4 -30 24 0 19 4 23 19 19 10 -3 22 0 25 6
12 18 16 13 16 -19z m3221 3 c-8 -15 -10 -15 -11 -2 0 17 10 32 18 25 2 -3 -1
-13 -7 -23z m656 5 c-3 -8 -6 -5 -6 6 -1 11 2 17 5 13 3 -3 4 -12 1 -19z
m-367 -17 c0 -5 -9 -11 -21 -14 -16 -4 -18 -3 -8 9 13 16 29 19 29 5z m-1296
-17 c9 -8 16 -22 16 -29 0 -16 -27 -45 -41 -45 -22 0 -49 22 -49 40 0 22 25
50 45 50 7 0 21 -7 29 -16z m986 7 c0 -6 -4 -13 -10 -16 -5 -3 -10 1 -10 9 0
9 5 16 10 16 6 0 10 -4 10 -9z m-748 -33 c4 -27 3 -29 -8 -14 -7 10 -10 24 -7
32 8 20 10 18 15 -18z m-1977 -8 c26 -27 44 -38 138 -79 30 -13 36 -20 31 -36
-3 -11 -13 -64 -23 -117 l-17 -98 -61 30 c-34 16 -88 47 -119 70 -54 41 -56
43 -49 78 8 49 36 165 42 175 9 15 30 6 58 -23z m2984 4 c15 18 31 21 31 6 0
-6 -12 -15 -27 -21 -30 -11 -46 2 -35 30 5 12 7 11 12 -8 5 -21 7 -22 19 -7z
m-304 -13 c-3 -12 -11 -21 -16 -21 -6 0 -8 3 -6 8 2 4 7 16 11 26 9 25 20 13
11 -13z m-2247 7 c32 -32 0 -84 -37 -61 -22 14 -25 38 -6 57 20 19 27 20 43 4z
m2529 -62 c17 5 24 3 20 -3 -4 -6 -17 -13 -30 -15 -21 -4 -23 -1 -24 31 0 27
1 29 4 8 4 -23 8 -26 30 -21z m-324 19 c-3 -9 -8 -14 -10 -11 -3 3 -2 9 2 15
9 16 15 13 8 -4z m-1844 -25 c15 0 21 -19 35 -117 10 -65 16 -145 14 -178 l-3
-60 -41 -3 c-38 -3 -42 -1 -48 25 -4 15 -9 98 -13 184 -5 149 -5 157 13 161
11 2 21 0 22 -4 2 -4 12 -8 21 -8z m1218 -12 c-3 -7 -5 -2 -5 12 0 14 2 19 5
13 2 -7 2 -19 0 -25z m78 8 c22 -14 82 -48 134 -77 104 -57 105 -69 8 -69
-111 0 -217 73 -202 140 8 36 9 36 60 6z m-115 -7 c0 -6 -4 -7 -10 -4 -5 3
-10 11 -10 16 0 6 5 7 10 4 6 -3 10 -11 10 -16z m1520 -1 c0 -12 -1 -19 -3
-17 -1 2 -9 12 -16 22 -12 14 -11 17 3 17 10 0 16 -8 16 -22z m-867 -68 c-4
-4 -30 -12 -58 -18 l-50 -10 55 51 55 51 3 -34 c2 -18 0 -36 -5 -40z m-2217
46 c22 -7 90 -21 152 -31 62 -10 120 -25 130 -32 15 -13 13 -14 -18 -8 -123
22 -152 27 -210 36 -84 12 -141 30 -134 40 8 13 36 11 80 -5z m-204 -53 c-6
-26 -14 -81 -18 -121 -5 -58 -9 -70 -20 -62 -13 12 -12 34 7 145 11 61 26 101
36 92 3 -3 0 -27 -5 -54z m2338 32 c-13 -14 -26 -22 -29 -19 -3 3 5 14 18 25
33 27 39 24 11 -6z m415 16 c-12 -10 -65 -24 -65 -16 0 7 40 24 60 24 8 1 10
-2 5 -8z m485 -11 c0 -5 -2 -10 -4 -10 -3 0 -8 5 -11 10 -3 6 -1 10 4 10 6 0
11 -4 11 -10z m-3167 -12 c12 -7 31 -13 42 -13 17 0 20 -6 17 -45 -3 -42 -19
-141 -27 -166 -2 -8 -17 -9 -51 -3 -26 5 -49 10 -51 12 -5 6 18 179 28 204 10
27 13 27 42 11z m1695 -114 c3 -116 2 -126 -12 -111 -21 21 -24 237 -3 237 9
0 13 -33 15 -126z m68 79 c-7 -7 -26 7 -26 19 0 6 6 6 15 -2 9 -7 13 -15 11
-17z m464 19 c0 -5 -9 -17 -20 -27 -22 -20 -26 -14 -10 16 11 19 30 26 30 11z
m435 -2 c-3 -5 -18 -10 -33 -9 -24 0 -25 1 -7 9 28 12 47 12 40 0z m-3065 -34
c0 -36 -18 -51 -51 -41 -22 7 -25 45 -7 63 7 7 22 12 35 12 19 0 23 -5 23 -34z
m509 27 c0 -5 -4 -17 -9 -28 -8 -18 -9 -17 -9 8 -1 15 4 27 9 27 6 0 10 -3 9
-7z m1030 -21 c0 -11 -3 -12 -6 -4 -2 6 -12 12 -21 12 -14 0 -15 2 -2 9 18 12
30 5 29 -17z m1496 -11 c-3 -6 -14 -11 -23 -11 -15 1 -15 2 2 15 21 16 32 13
21 -4z m-2400 -12 c9 -9 -8 -166 -20 -177 -3 -3 -31 -1 -62 4 l-58 9 2 45 c6
101 13 129 36 133 29 6 89 -3 102 -14z m66 -34 c-8 -46 -9 -47 -10 -13 -1 34
8 73 15 66 2 -2 -1 -26 -5 -53z m1489 45 c0 -5 -4 -10 -10 -10 -5 0 -10 5 -10
10 0 6 5 10 10 10 6 0 10 -4 10 -10z m370 -15 c-7 -9 -15 -13 -18 -10 -3 2 1
11 8 20 7 9 15 13 18 10 3 -2 -1 -11 -8 -20z m-1781 9 c30 -6 31 -8 15 -25
-14 -15 -15 -21 -4 -34 7 -9 19 -14 27 -11 16 6 19 -1 27 -61 4 -24 2 -43 -3
-43 -5 0 -8 8 -7 18 1 12 -7 18 -26 20 -24 3 -28 0 -28 -22 0 -13 6 -27 13
-29 6 -3 -8 -6 -33 -6 l-45 -1 3 87 c4 122 2 119 61 107z m340 -66 c0 -40 -6
-113 -12 -163 l-12 -90 -40 0 c-34 0 -40 3 -38 20 1 11 5 84 9 163 l7 142 43
0 44 0 -1 -72z m383 40 c-7 -7 -12 -8 -12 -2 0 14 12 26 19 19 2 -3 -1 -11 -7
-17z m718 12 c0 -5 -7 -10 -16 -10 -8 0 -12 5 -9 10 3 6 10 10 16 10 5 0 9 -4
9 -10z m305 0 c-7 -11 -45 -33 -45 -26 0 2 7 12 16 20 17 18 39 22 29 6z
m-1515 -49 c0 -69 -17 -73 -22 -6 -2 39 1 55 10 55 8 0 12 -17 12 -49z m1996
23 c-30 -21 -44 -16 -17 7 13 11 27 17 30 13 3 -3 -3 -12 -13 -20z m-736 6 c0
-5 -12 -10 -27 -10 -22 0 -25 2 -13 10 20 13 40 13 40 0z m188 -6 c-9 -9 -22
-14 -30 -11 -8 3 -4 8 12 15 35 15 37 14 18 -4z m-154 -3 c3 -5 -3 -11 -15
-14 -16 -4 -18 -3 -8 9 13 16 16 17 23 5z m103 -8 c-4 -3 -19 -7 -34 -8 -16
-2 -37 -6 -48 -11 -18 -7 -19 -6 -6 10 9 11 24 16 37 13 13 -2 28 0 36 4 14 9
25 3 15 -8z m593 -23 c0 -5 -5 -10 -11 -10 -5 0 -7 5 -4 10 3 6 8 10 11 10 2
0 4 -4 4 -10z m-1490 -30 c-6 -11 -13 -20 -15 -20 -3 0 -5 9 -5 20 0 11 7 20
15 20 13 0 14 -4 5 -20z m137 -146 c-5 -6 -77 135 -77 150 1 6 19 -24 41 -68
22 -43 38 -80 36 -82z m-481 76 c14 -60 14 -62 -8 -79 -29 -24 -18 -56 16 -47
18 4 25 1 29 -13 6 -26 -39 -39 -61 -18 -11 12 -13 35 -7 121 4 59 9 105 12
102 2 -2 11 -32 19 -66z m1824 66 c0 -2 -7 -7 -16 -10 -8 -3 -12 -2 -9 4 6 10
25 14 25 6z m-1467 -38 c-13 -12 -28 -18 -37 -15 -23 9 -20 26 3 20 10 -2 25
2 32 10 8 8 16 13 18 11 3 -3 -5 -14 -16 -26z m-836 -30 c-2 -13 -4 -5 -4 17
-1 22 1 32 4 23 2 -10 2 -28 0 -40z m23 -49 c34 -5 30 -6 -18 -3 -77 4 -87 9
-62 34 11 11 21 30 22 43 0 12 4 2 7 -23 6 -45 6 -45 51 -51z m2261 68 c-10
-9 -11 -8 -5 6 3 10 9 15 12 12 3 -3 0 -11 -7 -18z m-2483 -34 c16 -13 5 -17
-21 -7 -9 3 -12 14 -9 32 5 22 7 23 10 7 2 -11 11 -26 20 -32z m1587 6 c-8
-12 -35 -12 -35 0 0 11 22 20 33 14 4 -2 5 -9 2 -14z m22 -36 c-3 -10 -5 -4
-5 12 0 17 2 24 5 18 2 -7 2 -21 0 -30z m874 0 c-12 -20 -14 -14 -5 12 4 9 9
14 11 11 3 -2 0 -13 -6 -23z m-1229 -30 c22 -20 23 -46 2 -64 -14 -11 -19 -9
-35 11 -28 37 -24 63 10 69 3 1 13 -6 23 -16z m383 -2 c7 -12 -12 -24 -25 -16
-11 7 -4 25 10 25 5 0 11 -4 15 -9z m-1607 -42 c3 -30 -18 -52 -42 -43 -16 6
-23 54 -9 68 16 16 48 1 51 -25z m1602 -9 c0 -5 -4 -10 -10 -10 -5 0 -10 5
-10 10 0 6 5 10 10 10 6 0 10 -4 10 -10z m-363 -125 c21 -42 1 -19 -26 30 -13
22 -15 31 -6 20 9 -11 23 -33 32 -50z m-763 29 c3 -8 2 -12 -4 -9 -6 3 -10 10
-10 16 0 14 7 11 14 -7z"/>
<path d="M2190 5318 c-11 -18 -21 -41 -21 -50 -6 -85 -1 -108 24 -108 5 0 2 9
-8 19 -17 20 -16 20 20 10 82 -23 116 52 59 129 -14 17 -32 32 -40 32 -8 0
-23 -15 -34 -32z"/>
<path d="M2280 5185 c-8 -9 -8 -15 -2 -15 12 0 26 19 19 26 -2 2 -10 -2 -17
-11z"/>
<path d="M3390 4988 c-36 -80 -22 -118 45 -118 53 0 71 22 60 78 -9 50 -33 82
-62 82 -19 0 -28 -9 -43 -42z"/>
<path d="M3360 4883 c0 -13 27 -49 33 -43 3 3 -3 16 -14 29 -10 13 -19 19 -19
14z"/>
<path d="M3480 4865 c-7 -8 -8 -15 -2 -15 5 0 15 7 22 15 7 8 8 15 2 15 -5 0
-15 -7 -22 -15z"/>
<path d="M2303 4799 c-22 -6 -35 -18 -39 -35 -4 -14 -4 -27 -1 -30 3 -3 31 2
63 12 55 16 143 15 187 -2 33 -12 16 11 -24 35 -47 26 -135 36 -186 20z"/>
<path d="M2294 4679 c-14 -16 -15 -21 -4 -17 8 3 19 -4 25 -16 6 -12 22 -22
38 -24 22 -3 30 2 40 26 12 28 14 29 37 16 40 -21 48 -15 15 11 -41 34 -123
35 -151 4z"/>
<path d="M2090 4472 c0 -25 58 -34 143 -23 4 1 7 6 7 11 0 13 -41 13 -74 1
-18 -7 -28 -6 -36 5 -13 15 -40 19 -40 6z"/>
<path d="M2118 4372 c-38 -8 -15 -19 34 -16 30 1 63 -3 80 -12 29 -15 58 -18
58 -6 0 19 -125 44 -172 34z"/>
<path d="M2145 4300 c3 -5 22 -10 41 -10 19 0 34 5 34 10 0 6 -18 10 -41 10
-24 0 -38 -4 -34 -10z"/>
<path d="M3476 4436 c-41 -9 -51 -16 -59 -39 -5 -16 -7 -31 -4 -33 3 -3 29 2
58 10 62 19 104 20 164 5 63 -16 73 -7 27 23 -52 35 -123 47 -186 34z"/>
<path d="M3472 4313 c-7 -2 -17 -13 -22 -24 -8 -15 -7 -17 5 -13 9 4 15 0 15
-10 0 -18 29 -35 48 -29 7 3 18 16 23 30 l9 25 36 -21 c42 -25 51 -26 33 -5
-31 37 -109 63 -147 47z"/>
<path d="M3237 4113 c-4 -3 6 -14 21 -23 21 -13 42 -16 80 -12 29 2 52 8 52
12 0 14 -50 21 -71 10 -16 -9 -26 -8 -44 4 -28 18 -29 19 -38 9z"/>
<path d="M3235 3980 c-24 -10 -24 -11 46 -15 34 -3 71 -13 92 -25 20 -12 41
-19 47 -15 16 10 -70 51 -120 57 -25 3 -54 2 -65 -2z"/>
<path d="M3266 3911 c15 -17 84 -27 84 -12 0 6 -10 11 -22 11 -13 0 -34 3 -48
6 -19 5 -22 4 -14 -5z"/>
<path d="M4882 3935 c-62 -14 -60 -12 -64 -50 -3 -34 -1 -35 85 -11 52 14 68
14 140 1 45 -8 83 -12 85 -11 2 2 -17 18 -41 35 -57 39 -133 52 -205 36z"/>
<path d="M4865 3804 c-9 -10 -12 -20 -8 -23 5 -3 12 -14 16 -24 7 -20 54 -40
75 -32 7 3 19 19 25 36 9 24 16 29 32 24 11 -4 34 -9 50 -11 27 -4 26 -2 -15
20 -55 31 -149 36 -175 10z m55 -14 c0 -5 -7 -10 -15 -10 -8 0 -15 5 -15 10 0
6 7 10 15 10 8 0 15 -4 15 -10z"/>
<path d="M4600 3581 c0 -5 11 -16 24 -25 19 -12 39 -14 85 -9 34 3 61 9 61 13
0 13 -54 19 -73 8 -21 -11 -67 -3 -67 12 0 6 -7 10 -15 10 -8 0 -15 -4 -15 -9z"/>
<path d="M4620 3430 c-31 -10 -29 -11 47 -16 38 -2 75 -12 97 -25 19 -11 43
-19 53 -17 26 5 -82 55 -132 61 -22 2 -51 1 -65 -3z"/>
<path d="M4664 3346 c22 -18 76 -22 76 -6 0 6 -13 10 -29 10 -16 0 -38 3 -48
6 -16 5 -16 4 1 -10z"/>
<path d="M2910 3230 c0 -5 5 -10 10 -10 6 0 10 5 10 10 0 6 -4 10 -10 10 -5 0
-10 -4 -10 -10z"/>
<path d="M2920 3159 c0 -5 5 -7 10 -4 6 3 10 8 10 11 0 2 -4 4 -10 4 -5 0 -10
-5 -10 -11z"/>
<path d="M2930 3070 c0 -5 5 -10 11 -10 5 0 7 5 4 10 -3 6 -8 10 -11 10 -2 0
-4 -4 -4 -10z"/>
<path d="M1927 2494 c-4 -4 -7 -18 -7 -31 0 -20 5 -24 23 -21 16 2 22 10 22
28 0 24 -23 39 -38 24z"/>
<path d="M4135 1960 c-4 -6 -3 -16 3 -22 6 -6 12 -6 17 2 4 6 3 16 -3 22 -6 6
-12 6 -17 -2z"/>
<path d="M4140 1840 c0 -5 5 -10 10 -10 6 0 10 5 10 10 0 6 -4 10 -10 10 -5 0
-10 -4 -10 -10z"/>
<path d="M4160 1710 c0 -5 5 -10 10 -10 6 0 10 5 10 10 0 6 -4 10 -10 10 -5 0
-10 -4 -10 -10z"/>
<path d="M4271 1664 c0 -11 3 -14 6 -6 3 7 2 16 -1 19 -3 4 -6 -2 -5 -13z"/>
<path d="M4282 1550 c0 -14 2 -19 5 -12 2 6 2 18 0 25 -3 6 -5 1 -5 -13z"/>
<path d="M3950 2022 c-18 -14 -21 -25 -17 -44 9 -33 34 -42 63 -23 29 19 32
60 5 75 -25 13 -25 13 -51 -8z m46 -23 c9 -15 -11 -33 -30 -26 -9 4 -13 13
-10 22 7 17 30 20 40 4z"/>
<path d="M2416 1883 c-4 -9 0 -23 9 -32 13 -14 17 -14 32 1 13 14 14 20 3 32
-16 21 -36 20 -44 -1z"/>
<path d="M3425 1840 c4 -6 11 -8 16 -5 14 9 11 15 -7 15 -8 0 -12 -5 -9 -10z"/>
<path d="M3440 1799 c0 -5 5 -7 10 -4 6 3 10 8 10 11 0 2 -4 4 -10 4 -5 0 -10
-5 -10 -11z"/>
<path d="M5096 1709 c-45 -36 -24 -89 35 -89 22 0 32 6 39 25 11 30 -1 70 -25
79 -22 8 -19 9 -49 -15z m52 -37 c4 -28 -24 -40 -44 -20 -14 13 -14 17 1 32
22 21 39 16 43 -12z"/>
<path d="M3531 1653 c-12 -24 1 -46 25 -41 13 2 19 12 19 28 0 30 -30 39 -44
13z"/>
<path d="M3206 1555 c-3 -8 -12 -15 -21 -15 -17 0 -20 -16 -5 -25 6 -4 8 -15
5 -26 -5 -14 -2 -19 14 -19 10 0 27 -3 37 -7 14 -5 16 -2 12 15 -4 13 0 23 10
27 13 5 12 9 -6 26 -12 11 -22 24 -22 29 0 16 -17 12 -24 -5z m24 -39 c0 -8
-4 -18 -10 -21 -5 -3 -10 3 -10 14 0 12 5 21 10 21 6 0 10 -6 10 -14z"/>
<path d="M3690 1335 c-17 -20 -5 -45 20 -45 11 0 23 7 26 15 6 15 -11 45 -26
45 -4 0 -13 -7 -20 -15z"/>
<path d="M3245 2946 c-108 -39 -257 -105 -305 -134 -53 -33 -33 -27 66 20 49
23 152 65 229 94 77 30 131 53 120 53 -11 0 -60 -15 -110 -33z"/>
<path d="M3340 2834 c-161 -43 -552 -192 -605 -231 -24 -18 -39 -24 185 66
102 40 257 97 345 127 156 52 185 67 75 38z"/>
<path d="M2970 2549 c-54 -10 -161 -41 -157 -45 2 -2 66 10 142 26 123 25 136
42 15 19z"/>
<path d="M3059 2506 c-2 -2 -63 -16 -134 -31 -72 -15 -152 -36 -178 -48 -47
-20 -74 -48 -62 -67 8 -14 62 -11 110 5 l40 13 -62 -5 c-135 -12 -44 37 162
87 72 17 134 36 140 41 5 6 5 9 -1 9 -6 0 -13 -2 -15 -4z"/>
<path d="M5952 1850 c70 -127 201 -348 219 -370 24 -29 -8 33 -118 225 -41 72
-86 144 -100 160 l-26 30 25 -45z"/>
<path d="M5894 1631 c59 -74 125 -241 177 -448 17 -71 35 -132 39 -136 20 -22
16 19 -15 138 -58 229 -124 382 -192 446 l-37 34 28 -34z"/>
<path d="M4212 1359 c2 -6 8 -10 13 -10 5 0 11 4 13 10 2 6 -4 11 -13 11 -9 0
-15 -5 -13 -11z"/>
<path d="M4252 1289 c5 -14 21 -14 26 0 2 6 -4 11 -13 11 -9 0 -15 -5 -13 -11z"/>
</g>
</svg>
